<svg width="59" height="59" viewBox="0 0 59 59" fill="none" xmlns="http://www.w3.org/2000/svg">
<g clip-path="url(#clip0_5_12)">
<path d="M55.343 3.19204C54.3332 2.17688 53.1321 1.37205 51.8092 0.824151C50.4863 0.276247 49.0679 -0.00385981 47.636 4.01711e-05H10.9C8.01011 0.00321645 5.2395 1.15263 3.19604 3.19608C1.15259 5.23954 0.00317628 8.01015 0 10.9L0 47.637C0.00317628 50.5269 1.15259 53.2975 3.19604 55.341C5.2395 57.3845 8.01011 58.5339 10.9 58.537H47.636C50.5259 58.5339 53.2965 57.3845 55.34 55.341C57.3834 53.2975 58.5328 50.5269 58.536 47.637V10.9C58.54 9.46792 58.2599 8.04923 57.7118 6.72613C57.1637 5.40303 56.3586 4.20181 55.343 3.19204V3.19204ZM55.105 47.636C55.1026 49.6162 54.3149 51.5146 52.9147 52.9148C51.5146 54.315 49.6162 55.1027 47.636 55.105H10.9C8.91966 55.1029 7.02101 54.3154 5.6206 52.9151C4.22019 51.5149 3.43238 49.6164 3.43 47.636V10.9C3.43212 8.91952 4.21981 7.02073 5.62025 5.62029C7.02069 4.21985 8.91948 3.43216 10.9 3.43004H47.636C48.617 3.42991 49.5884 3.62304 50.4948 3.99839C51.4012 4.37375 52.2247 4.92398 52.9184 5.61766C53.6121 6.31134 54.1623 7.13488 54.5376 8.04124C54.913 8.9476 55.1061 9.91903 55.106 10.9V47.636H55.105Z" fill="#707070"/>
<path d="M18.9214 27.2877L28.0133 36.3807C28.335 36.7022 28.7711 36.8828 29.2258 36.8828C29.6806 36.8828 30.1167 36.7022 30.4383 36.3807L39.5303 27.2887C39.6942 27.1305 39.8249 26.9413 39.9149 26.732C40.0048 26.5228 40.0521 26.2977 40.0541 26.0699C40.0561 25.8422 40.0128 25.6163 39.9265 25.4055C39.8403 25.1947 39.7129 25.0032 39.5519 24.8421C39.3908 24.6811 39.1993 24.5537 38.9885 24.4675C38.7777 24.3813 38.5519 24.3379 38.3241 24.3399C38.0964 24.3419 37.8713 24.3892 37.662 24.4792C37.4528 24.5691 37.2635 24.6998 37.1053 24.8637L30.9413 31.0287L30.9413 12.7347C30.9413 12.2798 30.7607 11.8436 30.439 11.522C30.1174 11.2004 29.6812 11.0197 29.2263 11.0197C28.7715 11.0197 28.3353 11.2004 28.0137 11.522C27.692 11.8436 27.5113 12.2798 27.5113 12.7347L27.5113 31.0267L21.3463 24.8617C21.0229 24.5494 20.5897 24.3767 20.1401 24.3806C19.6905 24.3846 19.2604 24.5649 18.9425 24.8829C18.6246 25.2008 18.4442 25.6308 18.4403 26.0804C18.4363 26.53 18.6091 26.9632 18.9214 27.2867V27.2877Z" fill="#707070"/>
<path d="M45.799 44.084H12.736C12.2811 44.084 11.8449 44.2647 11.5233 44.5863C11.2017 44.9079 11.021 45.3441 11.021 45.799C11.021 46.2538 11.2017 46.69 11.5233 47.0117C11.8449 47.3333 12.2811 47.514 12.736 47.514H45.799C46.2538 47.514 46.6901 47.3333 47.0117 47.0117C47.3333 46.69 47.514 46.2538 47.514 45.799C47.514 45.3441 47.3333 44.9079 47.0117 44.5863C46.6901 44.2647 46.2538 44.084 45.799 44.084V44.084Z" fill="#707070"/>
</g>
<defs>
<clipPath id="clip0_5_12">
<rect width="58.536" height="58.536" fill="white"/>
</clipPath>
</defs>
</svg>
