<?xml version="1.0" encoding="UTF-8"?><svg id="Layer_2" xmlns="http://www.w3.org/2000/svg" viewBox="0 0 400.84 510.6"><g id="Layer_1-2"><g id="_UH66c.tif"><g><path d="M0,314.98c1.27-8.86,2.24-17.77,3.86-26.56,4.55-24.68,14.24-47.28,28.24-68.06C79.64,149.82,127.37,79.42,174.58,8.66c8.27-12.4,16.36-10.64,23.31-.04,24.97,38.06,50.68,75.63,76.11,113.38,.83,1.24,1.69,2.46,2.92,4.24,1.18-1.58,2.24-2.9,3.19-4.3,7.43-11.02,14.82-22.07,22.27-33.08,5.76-8.51,13.37-8.65,19.04-.24,21.76,32.22,43.62,64.36,65.13,96.75,22.83,34.38,17.88,80.8-11.64,110.37-3.17,3.18-4.07,6.13-3.75,10.43,5.35,71.9-21.34,129.19-79.55,171.39-26.34,19.09-56.32,29.41-88.8,32.21-1.11,.1-2.2,.55-3.3,.83h-25.94c-6.54-.97-13.1-1.85-19.62-2.93C79.46,495.3,17.78,434.83,3.88,360.44,2.24,351.67,1.28,342.78,0,333.94v-18.96ZM186.29,27.62c-1.51,2.18-2.57,3.66-3.59,5.17C138.87,97.83,95.28,163.03,51.14,227.86c-26.05,38.26-35.94,79.81-28.28,125.45,15.37,91.58,106.87,153.5,197.43,133.7,67.32-14.72,117.21-66.45,129.54-134.51,2.33-12.88,2.99-25.91,1.9-39.44-2,.8-3.51,1.39-5.01,2.02-36.78,15.47-78.34,5.15-103.6-25.75-24.73-30.24-26.52-73.22-4.44-105.89,7.91-11.7,15.67-23.5,23.75-35.09,2.05-2.95,1.98-4.92-.02-7.86-21.27-31.35-42.38-62.81-63.54-94.23-4.07-6.04-8.15-12.07-12.58-18.64Zm125.86,83.04c-.8,.93-1.16,1.27-1.44,1.68-18.95,28.11-38.03,56.14-56.79,84.38-8.88,13.37-12.03,28.43-10.27,44.29,3.16,28.55,23.87,52.13,51.36,59.04,27.93,7.02,56.82-3.74,73.3-27.29,16.46-23.52,16.6-54.16,.38-78.21-8.27-12.26-16.52-24.54-24.79-36.81-10.48-15.55-20.96-31.09-31.75-47.08Z"/><path d="M41.96,327.02c.37-29.43,8.9-56.4,26.37-80.42,3.75-5.16,9.73-6.21,14.4-2.79,4.55,3.32,5.33,8.88,1.98,14.18-.62,.98-1.34,1.9-2,2.86-13.26,19.29-20.19,40.7-20.66,64.06-1.05,51.79,30.62,96.57,80.18,113.74,6.64,2.3,9.78,6.17,9.15,11.29-.84,6.91-7.17,10.45-14.66,7.88-39.96-13.75-68.27-40.11-84.71-79.06-6.93-16.43-9.87-33.74-10.05-51.74Z"/><path d="M172.44,466.91c-5.76,.07-10.01-4.15-10.02-9.96-.01-5.47,4.27-9.83,9.67-9.85,5.56-.02,10.31,4.62,10.23,10-.08,5.27-4.58,9.73-9.88,9.8Z"/><path d="M256.56,227.28c1.03-3.95,2.44-10.94,4.75-17.62,1.99-5.78,7.71-7.97,12.91-5.86,5.04,2.04,7.55,7.26,5.54,12.75-6.41,17.53-2.36,31.83,12.47,43.24,4.84,3.72,5.46,9.67,2.01,14.12-3.31,4.27-9,5.24-13.78,1.88-15.67-11.01-23.34-26.3-23.9-48.51Z"/><path d="M322.21,276.79c.07,5.51-4.53,10.16-10.06,10.16-5.3,0-9.73-4.45-9.81-9.86-.08-5.47,4.13-9.92,9.52-10.07,5.67-.15,10.27,4.19,10.35,9.77Z"/></g></g></g></svg>