<?xml version="1.0" encoding="UTF-8"?><svg id="Layer_2" xmlns="http://www.w3.org/2000/svg" viewBox="0 0 511.75 511.05"><g id="Layer_1-2"><g id="jOO0OH.tif"><g><path d="M0,167.69c3.69-8.4,10.3-11.04,19.19-10.96,31.11,.28,62.22,.22,93.33-.03,4.1-.03,8.52-1.33,12.22-3.18,9.06-4.53,17.76-9.76,26.64-14.65,5.06-2.78,9.48-2.01,11.72,1.93,2.27,3.99,.69,8.24-4.32,11.06-9.7,5.46-19.26,11.23-29.28,16.04-4.76,2.29-10.43,3.69-15.71,3.74-30.94,.34-61.89,.17-92.83,.17-1.79,0-3.59,0-5.68,0v36.51H495.85v-36.51h-5.62c-30.11,0-60.23-.14-90.34,.09-7.93,.06-14.95-1.8-21.83-5.66-39.15-21.92-78.43-43.59-117.57-65.53-3.7-2.07-6.36-1.94-9.95,.1-18.78,10.66-37.72,21.06-56.61,31.54-1.16,.65-2.3,1.36-3.52,1.87-4.02,1.68-7.98,.41-9.9-3.11-1.94-3.56-.93-7.63,2.82-9.93,4.1-2.52,8.4-4.73,12.61-7.07,15.69-8.72,31.31-17.56,47.11-26.05,3.71-1.99,5.16-4.15,5.11-8.43-.24-20.46-.12-40.92-.1-61.38C248.1,4.99,253.16,.01,266.56,.01c17.3,0,34.6-.02,51.91,0,11.16,.02,16.79,5.71,16.82,16.96,.03,8.65,.03,17.3,0,25.95-.04,11.25-5.69,16.95-16.82,16.96-16.47,.02-32.94,0-49.41,0-1.8,0-3.6,0-5.96,0,0,8.06-.13,15.66,.13,23.24,.04,1.24,1.53,2.87,2.77,3.56,40.92,22.82,81.87,45.59,122.93,68.19,2.59,1.43,6.02,1.86,9.07,1.87,31.61,.13,63.22,.07,94.83,.08,13.2,0,18.32,5.19,18.32,18.48,0,10.15,0,20.29,0,30.44,0,11.47-3.51,15.89-14.77,18.4v241.66c2.09,.96,4.61,1.61,6.46,3.09,2.4,1.93,5.09,4.18,6.22,6.89,3.42,8.25,3.79,17.17,.02,25.13-1.97,4.16-7.16,6.79-10.9,10.11H12.98c-5.96-2.69-10.3-7-12.98-12.98v-18.96c2.68-4.74,5.15-9.93,10.87-11.5,3.83-1.05,4.17-3.15,4.17-6.47-.08-77.31-.06-154.63-.06-231.94v-5.38c-7.97-.4-12.28-4.78-14.97-11.21v-44.92Zm141.42,85.86c-.16,.72-.23,.88-.23,1.05-.04,59.54-.1,119.07,0,178.61,0,1.28,1.51,3.23,2.77,3.73,8.1,3.19,12.04,9.03,12.07,17.63,.02,3.75,0,7.51,0,11.24h41.08c0-2.4,0-4.53,0-6.65,0-37.25-.01-74.51,0-111.76,0-14.16,6.65-20.8,20.75-20.82,24.79-.02,49.57,0,74.36,0,15.48,0,21.78,6.3,21.79,21.79,0,37.09,0,74.18,0,111.26v6.14h41.18c0-4.6-.17-8.9,.04-13.18,.33-6.94,3.7-12.34,10.19-14.62,4.34-1.53,4.76-3.9,4.72-7.75-.17-15.46-.13-30.93,0-46.4,.04-4.93,2.87-7.75,7.19-7.84,4.26-.09,7.18,2.74,7.65,7.51,.13,1.32,.06,2.66,.06,3.99,0,14.3,0,28.61,0,42.91,0,1.77,0,3.53,0,5.47h35.86V254h-35.86v6.34c0,27.94,0,55.88,0,83.82,0,8.04-2.4,11.66-7.65,11.6-5.13-.06-7.31-3.41-7.32-11.3,0-28.77,0-57.54,0-86.32,0-2.27,.45-4.4-2.76-5.45-8.5-2.78-12.28-9.09-12.22-17.89,.03-3.6,0-7.2,0-10.77H156.05c.27,12.56,1.6,25.54-14.63,29.54Zm157.26,212.35c.13-1.45,.35-2.75,.36-4.04,.02-38.24-.04-76.47,.09-114.71,.01-4.43-1.64-5.7-5.89-5.68-24.94,.14-49.88,.06-74.83,.08-6.11,0-6.3,.2-6.3,6.61-.01,37.57,0,75.14,0,112.72v5.03h86.58Zm-224.06-29.67V253.53c-16.41-4.06-14.98-17.28-14.69-29.61H30.26v241.8h29.74c-.61-12.79-1.37-25.45,14.62-29.49ZM436.47,253.58v182.67c16.39,3.97,15.06,17.13,14.75,29.48h29.7V224.01h-29.76c.5,12.66,1.5,25.45-14.68,29.57Zm-180.43,227.49c-77.7,0-155.39,0-233.09,0-1.5,0-3.02-.15-4.48,.07-1.05,.16-2.86,.77-2.9,1.29-.31,3.93-.78,8.01,0,11.78,.22,1.06,4.5,1.79,6.92,1.79,155.39,.08,310.79,.07,466.18,.07,1.5,0,3.02,.14,4.48-.09,.89-.14,2.38-.8,2.41-1.31,.27-3.94,.76-8-.02-11.78-.22-1.04-4.5-1.76-6.92-1.76-77.53-.09-155.06-.07-232.59-.07ZM90.23,253.84v181.95h35.52V253.84h-35.52ZM263.32,44.59h56.66V15.26h-56.66v29.33Zm-122.28,179.45H74.88c0,3.85-.32,7.37,.16,10.77,.19,1.39,2.1,3.63,3.24,3.64,19.75,.23,39.5,.22,59.24,.03,1.18-.01,3.21-1.87,3.35-3.04,.44-3.71,.16-7.51,.16-11.41Zm229.07-.12c0,4.13-.28,7.8,.15,11.39,.15,1.22,2.08,3.16,3.22,3.17,19.75,.2,39.5,.2,59.24,0,1.19-.01,3.23-1.86,3.37-3.03,.44-3.72,.16-7.52,.16-11.54h-66.15ZM75.35,465.82h65.73c0-3.2-.21-6.16,.05-9.08,.39-4.34-1.27-5.77-5.66-5.71-15.93,.22-31.86-.09-47.79,.14-14.58,.21-12.87-3.37-12.66,13.8,0,.15,.11,.29,.33,.85Zm360.92,.08c0-3.74-.09-7.19,.03-10.63,.1-2.95-1.12-4.18-4.11-4.18-19.41,.06-38.83-.02-58.24,.16-1.28,.01-3.51,1.68-3.63,2.77-.45,3.86-.17,7.8-.17,11.88h66.14Z"/><path d="M289.59,161.32c-.02,18.67-15.16,33.94-33.81,34.11-18.73,.17-34.24-15.32-34.23-34.18,0-18.73,15.04-33.87,33.8-34.04,18.83-.17,34.25,15.2,34.24,34.11Zm-14.98,.29c.13-10.59-8.04-19.12-18.59-19.42-10.43-.3-19.26,8.11-19.48,18.53-.22,10.75,8.21,19.59,18.83,19.74,10.36,.15,19.11-8.43,19.24-18.85Z"/><path d="M255.58,298.69c-20.62,0-41.23,.03-61.85,0-11.73-.02-17.07-5.36-17.12-17-.02-4.82-.06-9.64,.01-14.46,.14-9.65,5.87-15.45,15.59-15.58,9.14-.13,18.29-.03,27.43-.03,32.42,0,64.84-.01,97.26,0,12.28,0,17.59,5.34,17.61,17.59,0,4.49,.03,8.98,0,13.46-.08,10.34-5.64,15.96-16.09,16-20.95,.07-41.9,.02-62.85,.02Zm-63.79-15.3h127.41v-16.5h-127.41v16.5Z"/></g></g></g></svg>