<svg width="59" height="59" viewBox="0 0 59 59" fill="none" xmlns="http://www.w3.org/2000/svg">
<g clip-path="url(#clip0_5_2)">
<path d="M55.343 3.19204C54.3332 2.17688 53.1321 1.37205 51.8092 0.824151C50.4863 0.276247 49.0679 -0.00385981 47.636 4.01711e-05H10.9C8.01011 0.00321645 5.2395 1.15263 3.19604 3.19608C1.15259 5.23954 0.00317628 8.01015 0 10.9L0 47.637C0.00317628 50.5269 1.15259 53.2975 3.19604 55.341C5.2395 57.3845 8.01011 58.5339 10.9 58.537H47.636C50.5259 58.5339 53.2965 57.3845 55.34 55.341C57.3834 53.2975 58.5328 50.5269 58.536 47.637V10.9C58.54 9.46792 58.2599 8.04923 57.7118 6.72613C57.1637 5.40303 56.3586 4.20181 55.343 3.19204V3.19204ZM55.105 47.636C55.1026 49.6162 54.3149 51.5146 52.9147 52.9148C51.5146 54.315 49.6162 55.1027 47.636 55.105H10.9C8.91966 55.1029 7.02101 54.3154 5.6206 52.9151C4.22019 51.5149 3.43238 49.6164 3.43 47.636V10.9C3.43212 8.91952 4.21981 7.02073 5.62025 5.62029C7.02069 4.21985 8.91948 3.43216 10.9 3.43004H47.636C48.617 3.42991 49.5884 3.62304 50.4948 3.99839C51.4012 4.37375 52.2247 4.92398 52.9184 5.61766C53.6121 6.31134 54.1623 7.13488 54.5376 8.04124C54.913 8.9476 55.1061 9.91903 55.106 10.9V47.636H55.105Z" fill="#707070"/>
<path d="M39.573 20.6149L30.481 11.5219C30.1594 11.2004 29.7233 11.0198 29.2685 11.0198C28.8138 11.0198 28.3776 11.2004 28.056 11.5219L18.964 20.6139C18.8002 20.7721 18.6695 20.9613 18.5795 21.1706C18.4896 21.3798 18.4423 21.6049 18.4403 21.8327C18.4382 22.0604 18.4816 22.2863 18.5678 22.4971C18.6541 22.7079 18.7814 22.8994 18.9425 23.0604C19.1035 23.2215 19.2951 23.3489 19.5059 23.4351C19.7167 23.5213 19.9425 23.5647 20.1703 23.5627C20.398 23.5607 20.6231 23.5133 20.8324 23.4234C21.0416 23.3335 21.2309 23.2028 21.389 23.0389L27.553 16.8739V35.1679C27.553 35.6227 27.7337 36.059 28.0553 36.3806C28.377 36.7022 28.8132 36.8829 29.268 36.8829C29.7229 36.8829 30.1591 36.7022 30.4807 36.3806C30.8024 36.059 30.983 35.6227 30.983 35.1679V16.8759L37.148 23.0409C37.4715 23.3532 37.9047 23.5259 38.3543 23.522C38.8039 23.518 39.2339 23.3377 39.5519 23.0197C39.8698 22.7018 40.0502 22.2717 40.0541 21.8221C40.0581 21.3725 39.8853 20.9394 39.573 20.6159V20.6149Z" fill="#707070"/>
<path d="M45.799 44.084H12.736C12.2811 44.084 11.8449 44.2647 11.5233 44.5863C11.2017 44.9079 11.021 45.3441 11.021 45.799C11.021 46.2538 11.2017 46.69 11.5233 47.0117C11.8449 47.3333 12.2811 47.514 12.736 47.514H45.799C46.2538 47.514 46.6901 47.3333 47.0117 47.0117C47.3333 46.69 47.514 46.2538 47.514 45.799C47.514 45.3441 47.3333 44.9079 47.0117 44.5863C46.6901 44.2647 46.2538 44.084 45.799 44.084V44.084Z" fill="#707070"/>
</g>
<defs>
<clipPath id="clip0_5_2">
<rect width="58.536" height="58.536" fill="white"/>
</clipPath>
</defs>
</svg>
