<svg width="652" height="469" viewBox="0 0 652 469" fill="none" xmlns="http://www.w3.org/2000/svg">
<ellipse cx="649.435" cy="466" rx="2.17148" ry="2.25311" transform="rotate(180 649.435 466)" fill="#E0F0FF"/>
<ellipse cx="649.435" cy="414.472" rx="2.17148" ry="2.25311" transform="rotate(180 649.435 414.472)" fill="#E0F0FF"/>
<ellipse cx="649.435" cy="362.945" rx="2.17148" ry="2.25311" transform="rotate(180 649.435 362.945)" fill="#E0F0FF"/>
<ellipse cx="649.435" cy="311.417" rx="2.17148" ry="2.25311" transform="rotate(180 649.435 311.417)" fill="#E0F0FF"/>
<ellipse cx="649.435" cy="259.89" rx="2.17148" ry="2.25311" transform="rotate(180 649.435 259.89)" fill="#E0F0FF"/>
<ellipse cx="649.435" cy="105.308" rx="2.17148" ry="2.25311" transform="rotate(180 649.435 105.308)" fill="#E0F0FF"/>
<ellipse cx="649.435" cy="208.363" rx="2.17148" ry="2.25311" transform="rotate(180 649.435 208.363)" fill="#E0F0FF"/>
<ellipse cx="649.435" cy="53.7806" rx="2.17148" ry="2.25311" transform="rotate(180 649.435 53.7806)" fill="#E0F0FF"/>
<ellipse cx="649.435" cy="156.835" rx="2.17148" ry="2.25311" transform="rotate(180 649.435 156.835)" fill="#E0F0FF"/>
<ellipse cx="649.435" cy="2.25275" rx="2.17148" ry="2.25311" transform="rotate(180 649.435 2.25275)" fill="#E0F0FF"/>
<ellipse cx="599.645" cy="466" rx="2.17148" ry="2.25311" transform="rotate(180 599.645 466)" fill="#E0F0FF"/>
<ellipse cx="599.645" cy="414.472" rx="2.17148" ry="2.25311" transform="rotate(180 599.645 414.472)" fill="#E0F0FF"/>
<ellipse cx="599.645" cy="362.945" rx="2.17148" ry="2.25311" transform="rotate(180 599.645 362.945)" fill="#E0F0FF"/>
<ellipse cx="599.645" cy="311.417" rx="2.17148" ry="2.25311" transform="rotate(180 599.645 311.417)" fill="#E0F0FF"/>
<ellipse cx="599.645" cy="259.89" rx="2.17148" ry="2.25311" transform="rotate(180 599.645 259.89)" fill="#E0F0FF"/>
<ellipse cx="599.645" cy="105.308" rx="2.17148" ry="2.25311" transform="rotate(180 599.645 105.308)" fill="#E0F0FF"/>
<ellipse cx="599.645" cy="208.363" rx="2.17148" ry="2.25311" transform="rotate(180 599.645 208.363)" fill="#E0F0FF"/>
<ellipse cx="599.645" cy="53.7806" rx="2.17148" ry="2.25311" transform="rotate(180 599.645 53.7806)" fill="#E0F0FF"/>
<ellipse cx="599.645" cy="156.835" rx="2.17148" ry="2.25311" transform="rotate(180 599.645 156.835)" fill="#E0F0FF"/>
<ellipse cx="599.645" cy="2.25275" rx="2.17148" ry="2.25311" transform="rotate(180 599.645 2.25275)" fill="#E0F0FF"/>
<ellipse cx="549.856" cy="466" rx="2.17148" ry="2.25311" transform="rotate(180 549.856 466)" fill="#E0F0FF"/>
<ellipse cx="549.857" cy="414.472" rx="2.17148" ry="2.25311" transform="rotate(180 549.857 414.472)" fill="#E0F0FF"/>
<ellipse cx="549.856" cy="362.945" rx="2.17148" ry="2.25311" transform="rotate(180 549.856 362.945)" fill="#E0F0FF"/>
<ellipse cx="549.856" cy="311.417" rx="2.17148" ry="2.25311" transform="rotate(180 549.856 311.417)" fill="#E0F0FF"/>
<ellipse cx="549.856" cy="259.89" rx="2.17148" ry="2.25311" transform="rotate(180 549.856 259.89)" fill="#E0F0FF"/>
<ellipse cx="549.856" cy="105.308" rx="2.17148" ry="2.25311" transform="rotate(180 549.856 105.308)" fill="#E0F0FF"/>
<ellipse cx="549.856" cy="208.363" rx="2.17148" ry="2.25311" transform="rotate(180 549.856 208.363)" fill="#E0F0FF"/>
<ellipse cx="549.856" cy="53.7806" rx="2.17148" ry="2.25311" transform="rotate(180 549.856 53.7806)" fill="#E0F0FF"/>
<ellipse cx="549.856" cy="156.835" rx="2.17148" ry="2.25311" transform="rotate(180 549.856 156.835)" fill="#E0F0FF"/>
<ellipse cx="549.856" cy="2.25275" rx="2.17148" ry="2.25311" transform="rotate(180 549.856 2.25275)" fill="#E0F0FF"/>
<ellipse cx="500.067" cy="466" rx="2.17148" ry="2.25311" transform="rotate(180 500.067 466)" fill="#E0F0FF"/>
<ellipse cx="500.066" cy="414.472" rx="2.17148" ry="2.25311" transform="rotate(180 500.066 414.472)" fill="#E0F0FF"/>
<ellipse cx="500.067" cy="362.945" rx="2.17148" ry="2.25311" transform="rotate(180 500.067 362.945)" fill="#E0F0FF"/>
<ellipse cx="500.067" cy="311.417" rx="2.17148" ry="2.25311" transform="rotate(180 500.067 311.417)" fill="#E0F0FF"/>
<ellipse cx="500.066" cy="259.89" rx="2.17148" ry="2.25311" transform="rotate(180 500.066 259.89)" fill="#E0F0FF"/>
<ellipse cx="500.066" cy="105.308" rx="2.17148" ry="2.25311" transform="rotate(180 500.066 105.308)" fill="#E0F0FF"/>
<ellipse cx="500.066" cy="208.363" rx="2.17148" ry="2.25311" transform="rotate(180 500.066 208.363)" fill="#E0F0FF"/>
<ellipse cx="500.066" cy="53.7806" rx="2.17148" ry="2.25311" transform="rotate(180 500.066 53.7806)" fill="#E0F0FF"/>
<ellipse cx="500.067" cy="156.835" rx="2.17148" ry="2.25311" transform="rotate(180 500.067 156.835)" fill="#E0F0FF"/>
<ellipse cx="500.067" cy="2.25275" rx="2.17148" ry="2.25311" transform="rotate(180 500.067 2.25275)" fill="#E0F0FF"/>
<ellipse cx="450.277" cy="466" rx="2.17148" ry="2.25311" transform="rotate(180 450.277 466)" fill="#E0F0FF"/>
<ellipse cx="450.276" cy="414.472" rx="2.17148" ry="2.25311" transform="rotate(180 450.276 414.472)" fill="#E0F0FF"/>
<ellipse cx="450.277" cy="362.945" rx="2.17148" ry="2.25311" transform="rotate(180 450.277 362.945)" fill="#E0F0FF"/>
<ellipse cx="450.277" cy="311.417" rx="2.17148" ry="2.25311" transform="rotate(180 450.277 311.417)" fill="#E0F0FF"/>
<ellipse cx="450.276" cy="259.89" rx="2.17148" ry="2.25311" transform="rotate(180 450.276 259.89)" fill="#E0F0FF"/>
<ellipse cx="450.276" cy="105.308" rx="2.17148" ry="2.25311" transform="rotate(180 450.276 105.308)" fill="#E0F0FF"/>
<ellipse cx="450.276" cy="208.363" rx="2.17148" ry="2.25311" transform="rotate(180 450.276 208.363)" fill="#E0F0FF"/>
<ellipse cx="450.276" cy="53.7806" rx="2.17148" ry="2.25311" transform="rotate(180 450.276 53.7806)" fill="#E0F0FF"/>
<ellipse cx="450.277" cy="156.835" rx="2.17148" ry="2.25311" transform="rotate(180 450.277 156.835)" fill="#E0F0FF"/>
<ellipse cx="450.277" cy="2.25275" rx="2.17148" ry="2.25311" transform="rotate(180 450.277 2.25275)" fill="#E0F0FF"/>
<ellipse cx="400.488" cy="466" rx="2.17148" ry="2.25311" transform="rotate(180 400.488 466)" fill="#E0F0FF"/>
<ellipse cx="400.487" cy="414.472" rx="2.17148" ry="2.25311" transform="rotate(180 400.487 414.472)" fill="#E0F0FF"/>
<ellipse cx="400.488" cy="362.945" rx="2.17148" ry="2.25311" transform="rotate(180 400.488 362.945)" fill="#E0F0FF"/>
<ellipse cx="400.488" cy="311.417" rx="2.17148" ry="2.25311" transform="rotate(180 400.488 311.417)" fill="#E0F0FF"/>
<ellipse cx="400.487" cy="259.89" rx="2.17148" ry="2.25311" transform="rotate(180 400.487 259.89)" fill="#E0F0FF"/>
<ellipse cx="400.487" cy="105.308" rx="2.17148" ry="2.25311" transform="rotate(180 400.487 105.308)" fill="#E0F0FF"/>
<ellipse cx="400.487" cy="208.363" rx="2.17148" ry="2.25311" transform="rotate(180 400.487 208.363)" fill="#E0F0FF"/>
<ellipse cx="400.487" cy="53.7806" rx="2.17148" ry="2.25311" transform="rotate(180 400.487 53.7806)" fill="#E0F0FF"/>
<ellipse cx="400.488" cy="156.835" rx="2.17148" ry="2.25311" transform="rotate(180 400.488 156.835)" fill="#E0F0FF"/>
<ellipse cx="400.488" cy="2.25275" rx="2.17148" ry="2.25311" transform="rotate(180 400.488 2.25275)" fill="#E0F0FF"/>
<ellipse cx="350.698" cy="466" rx="2.17148" ry="2.25311" transform="rotate(180 350.698 466)" fill="#E0F0FF"/>
<ellipse cx="350.698" cy="414.472" rx="2.17148" ry="2.25311" transform="rotate(180 350.698 414.472)" fill="#E0F0FF"/>
<ellipse cx="350.698" cy="362.945" rx="2.17148" ry="2.25311" transform="rotate(180 350.698 362.945)" fill="#E0F0FF"/>
<ellipse cx="350.698" cy="311.417" rx="2.17148" ry="2.25311" transform="rotate(180 350.698 311.417)" fill="#E0F0FF"/>
<ellipse cx="350.698" cy="259.89" rx="2.17148" ry="2.25311" transform="rotate(180 350.698 259.89)" fill="#E0F0FF"/>
<ellipse cx="350.698" cy="105.308" rx="2.17148" ry="2.25311" transform="rotate(180 350.698 105.308)" fill="#E0F0FF"/>
<ellipse cx="350.698" cy="208.363" rx="2.17148" ry="2.25311" transform="rotate(180 350.698 208.363)" fill="#E0F0FF"/>
<ellipse cx="350.698" cy="53.7806" rx="2.17148" ry="2.25311" transform="rotate(180 350.698 53.7806)" fill="#E0F0FF"/>
<ellipse cx="350.698" cy="156.835" rx="2.17148" ry="2.25311" transform="rotate(180 350.698 156.835)" fill="#E0F0FF"/>
<ellipse cx="350.698" cy="2.25275" rx="2.17148" ry="2.25311" transform="rotate(180 350.698 2.25275)" fill="#E0F0FF"/>
<ellipse cx="300.909" cy="466" rx="2.17148" ry="2.25311" transform="rotate(180 300.909 466)" fill="#E0F0FF"/>
<ellipse cx="300.909" cy="414.472" rx="2.17148" ry="2.25311" transform="rotate(180 300.909 414.472)" fill="#E0F0FF"/>
<ellipse cx="300.909" cy="362.945" rx="2.17148" ry="2.25311" transform="rotate(180 300.909 362.945)" fill="#E0F0FF"/>
<ellipse cx="300.909" cy="311.417" rx="2.17148" ry="2.25311" transform="rotate(180 300.909 311.417)" fill="#E0F0FF"/>
<ellipse cx="300.909" cy="259.89" rx="2.17148" ry="2.25311" transform="rotate(180 300.909 259.89)" fill="#E0F0FF"/>
<ellipse cx="300.909" cy="105.308" rx="2.17148" ry="2.25311" transform="rotate(180 300.909 105.308)" fill="#E0F0FF"/>
<ellipse cx="300.909" cy="208.363" rx="2.17148" ry="2.25311" transform="rotate(180 300.909 208.363)" fill="#E0F0FF"/>
<ellipse cx="300.909" cy="53.7806" rx="2.17148" ry="2.25311" transform="rotate(180 300.909 53.7806)" fill="#E0F0FF"/>
<ellipse cx="300.909" cy="156.835" rx="2.17148" ry="2.25311" transform="rotate(180 300.909 156.835)" fill="#E0F0FF"/>
<ellipse cx="300.909" cy="2.25275" rx="2.17148" ry="2.25311" transform="rotate(180 300.909 2.25275)" fill="#E0F0FF"/>
<ellipse cx="251.119" cy="466" rx="2.17148" ry="2.25311" transform="rotate(180 251.119 466)" fill="#E0F0FF"/>
<ellipse cx="251.119" cy="414.472" rx="2.17148" ry="2.25311" transform="rotate(180 251.119 414.472)" fill="#E0F0FF"/>
<ellipse cx="251.119" cy="362.945" rx="2.17148" ry="2.25311" transform="rotate(180 251.119 362.945)" fill="#E0F0FF"/>
<ellipse cx="251.119" cy="311.417" rx="2.17148" ry="2.25311" transform="rotate(180 251.119 311.417)" fill="#E0F0FF"/>
<ellipse cx="251.119" cy="259.89" rx="2.17148" ry="2.25311" transform="rotate(180 251.119 259.89)" fill="#E0F0FF"/>
<ellipse cx="251.119" cy="105.308" rx="2.17148" ry="2.25311" transform="rotate(180 251.119 105.308)" fill="#E0F0FF"/>
<ellipse cx="251.119" cy="208.363" rx="2.17148" ry="2.25311" transform="rotate(180 251.119 208.363)" fill="#E0F0FF"/>
<ellipse cx="251.119" cy="53.7806" rx="2.17148" ry="2.25311" transform="rotate(180 251.119 53.7806)" fill="#E0F0FF"/>
<ellipse cx="251.119" cy="156.835" rx="2.17148" ry="2.25311" transform="rotate(180 251.119 156.835)" fill="#E0F0FF"/>
<ellipse cx="251.119" cy="2.25324" rx="2.17148" ry="2.25311" transform="rotate(180 251.119 2.25324)" fill="#E0F0FF"/>
<ellipse cx="201.329" cy="466" rx="2.17148" ry="2.25311" transform="rotate(180 201.329 466)" fill="#E0F0FF"/>
<ellipse cx="201.329" cy="414.472" rx="2.17148" ry="2.25311" transform="rotate(180 201.329 414.472)" fill="#E0F0FF"/>
<ellipse cx="201.329" cy="362.945" rx="2.17148" ry="2.25311" transform="rotate(180 201.329 362.945)" fill="#E0F0FF"/>
<ellipse cx="201.329" cy="311.417" rx="2.17148" ry="2.25311" transform="rotate(180 201.329 311.417)" fill="#E0F0FF"/>
<ellipse cx="201.329" cy="259.89" rx="2.17148" ry="2.25311" transform="rotate(180 201.329 259.89)" fill="#E0F0FF"/>
<ellipse cx="201.329" cy="105.308" rx="2.17148" ry="2.25311" transform="rotate(180 201.329 105.308)" fill="#E0F0FF"/>
<ellipse cx="201.329" cy="208.363" rx="2.17148" ry="2.25311" transform="rotate(180 201.329 208.363)" fill="#E0F0FF"/>
<ellipse cx="201.329" cy="53.7806" rx="2.17148" ry="2.25311" transform="rotate(180 201.329 53.7806)" fill="#E0F0FF"/>
<ellipse cx="201.329" cy="156.835" rx="2.17148" ry="2.25311" transform="rotate(180 201.329 156.835)" fill="#E0F0FF"/>
<ellipse cx="201.329" cy="2.25324" rx="2.17148" ry="2.25311" transform="rotate(180 201.329 2.25324)" fill="#E0F0FF"/>
<ellipse cx="151.539" cy="466" rx="2.17148" ry="2.25311" transform="rotate(180 151.539 466)" fill="#E0F0FF"/>
<ellipse cx="151.539" cy="414.472" rx="2.17148" ry="2.25311" transform="rotate(180 151.539 414.472)" fill="#E0F0FF"/>
<ellipse cx="151.539" cy="362.945" rx="2.17148" ry="2.25311" transform="rotate(180 151.539 362.945)" fill="#E0F0FF"/>
<ellipse cx="151.539" cy="311.417" rx="2.17148" ry="2.25311" transform="rotate(180 151.539 311.417)" fill="#E0F0FF"/>
<ellipse cx="151.539" cy="259.89" rx="2.17148" ry="2.25311" transform="rotate(180 151.539 259.89)" fill="#E0F0FF"/>
<ellipse cx="151.539" cy="105.308" rx="2.17148" ry="2.25311" transform="rotate(180 151.539 105.308)" fill="#E0F0FF"/>
<ellipse cx="151.539" cy="208.363" rx="2.17148" ry="2.25311" transform="rotate(180 151.539 208.363)" fill="#E0F0FF"/>
<ellipse cx="151.539" cy="53.7806" rx="2.17148" ry="2.25311" transform="rotate(180 151.539 53.7806)" fill="#E0F0FF"/>
<ellipse cx="151.539" cy="156.835" rx="2.17148" ry="2.25311" transform="rotate(180 151.539 156.835)" fill="#E0F0FF"/>
<ellipse cx="151.539" cy="2.25324" rx="2.17148" ry="2.25311" transform="rotate(180 151.539 2.25324)" fill="#E0F0FF"/>
<ellipse cx="101.749" cy="466" rx="2.17148" ry="2.25311" transform="rotate(180 101.749 466)" fill="#E0F0FF"/>
<ellipse cx="51.9604" cy="466" rx="2.17148" ry="2.25311" transform="rotate(180 51.9604 466)" fill="#E0F0FF"/>
<ellipse cx="2.17129" cy="466" rx="2.17148" ry="2.25311" transform="rotate(180 2.17129 466)" fill="#E0F0FF"/>
<ellipse cx="101.749" cy="414.472" rx="2.17148" ry="2.25311" transform="rotate(180 101.749 414.472)" fill="#E0F0FF"/>
<ellipse cx="51.9604" cy="414.472" rx="2.17148" ry="2.25311" transform="rotate(180 51.9604 414.472)" fill="#E0F0FF"/>
<ellipse cx="2.17129" cy="414.472" rx="2.17148" ry="2.25311" transform="rotate(180 2.17129 414.472)" fill="#E0F0FF"/>
<ellipse cx="101.749" cy="362.945" rx="2.17148" ry="2.25311" transform="rotate(180 101.749 362.945)" fill="#E0F0FF"/>
<ellipse cx="51.9604" cy="362.945" rx="2.17148" ry="2.25311" transform="rotate(180 51.9604 362.945)" fill="#E0F0FF"/>
<ellipse cx="2.17129" cy="362.945" rx="2.17148" ry="2.25311" transform="rotate(180 2.17129 362.945)" fill="#E0F0FF"/>
<ellipse cx="101.749" cy="311.417" rx="2.17148" ry="2.25311" transform="rotate(180 101.749 311.417)" fill="#E0F0FF"/>
<ellipse cx="51.9604" cy="311.417" rx="2.17148" ry="2.25311" transform="rotate(180 51.9604 311.417)" fill="#E0F0FF"/>
<ellipse cx="2.17129" cy="311.417" rx="2.17148" ry="2.25311" transform="rotate(180 2.17129 311.417)" fill="#E0F0FF"/>
<ellipse cx="101.749" cy="259.89" rx="2.17148" ry="2.25311" transform="rotate(180 101.749 259.89)" fill="#E0F0FF"/>
<ellipse cx="101.75" cy="105.308" rx="2.17148" ry="2.25311" transform="rotate(180 101.75 105.308)" fill="#E0F0FF"/>
<ellipse cx="51.9604" cy="259.89" rx="2.17148" ry="2.25311" transform="rotate(180 51.9604 259.89)" fill="#E0F0FF"/>
<ellipse cx="51.9613" cy="105.308" rx="2.17148" ry="2.25311" transform="rotate(180 51.9613 105.308)" fill="#E0F0FF"/>
<ellipse cx="2.17129" cy="259.89" rx="2.17148" ry="2.25311" transform="rotate(180 2.17129 259.89)" fill="#E0F0FF"/>
<ellipse cx="2.17227" cy="105.308" rx="2.17148" ry="2.25311" transform="rotate(180 2.17227 105.308)" fill="#E0F0FF"/>
<ellipse cx="101.749" cy="208.363" rx="2.17148" ry="2.25311" transform="rotate(180 101.749 208.363)" fill="#E0F0FF"/>
<ellipse cx="101.75" cy="53.7806" rx="2.17148" ry="2.25311" transform="rotate(180 101.75 53.7806)" fill="#E0F0FF"/>
<ellipse cx="51.9604" cy="208.363" rx="2.17148" ry="2.25311" transform="rotate(180 51.9604 208.363)" fill="#E0F0FF"/>
<ellipse cx="51.9613" cy="53.7806" rx="2.17148" ry="2.25311" transform="rotate(180 51.9613 53.7806)" fill="#E0F0FF"/>
<ellipse cx="2.17129" cy="208.363" rx="2.17148" ry="2.25311" transform="rotate(180 2.17129 208.363)" fill="#E0F0FF"/>
<ellipse cx="2.17227" cy="53.7806" rx="2.17148" ry="2.25311" transform="rotate(180 2.17227 53.7806)" fill="#E0F0FF"/>
<ellipse cx="101.749" cy="156.835" rx="2.17148" ry="2.25311" transform="rotate(180 101.749 156.835)" fill="#E0F0FF"/>
<ellipse cx="101.75" cy="2.25324" rx="2.17148" ry="2.25311" transform="rotate(180 101.75 2.25324)" fill="#E0F0FF"/>
<ellipse cx="51.9604" cy="156.835" rx="2.17148" ry="2.25311" transform="rotate(180 51.9604 156.835)" fill="#E0F0FF"/>
<ellipse cx="51.9613" cy="2.25275" rx="2.17148" ry="2.25311" transform="rotate(180 51.9613 2.25275)" fill="#E0F0FF"/>
<ellipse cx="2.17129" cy="156.835" rx="2.17148" ry="2.25311" transform="rotate(180 2.17129 156.835)" fill="#E0F0FF"/>
<ellipse cx="2.17227" cy="2.25275" rx="2.17148" ry="2.25311" transform="rotate(180 2.17227 2.25275)" fill="#E0F0FF"/>
</svg>
