<svg xmlns="http://www.w3.org/2000/svg" width="40.372" height="37.333" viewBox="0 0 40.372 37.333">
  <g id="Group_1453" data-name="Group 1453" transform="translate(-194 -590)">
    <path id="file-alt" d="M16.333,9.917V0H1.75A1.746,1.746,0,0,0,0,1.75V35.583a1.746,1.746,0,0,0,1.75,1.75h24.5A1.746,1.746,0,0,0,28,35.583V11.667H18.083A1.755,1.755,0,0,1,16.333,9.917ZM21,27.125a.878.878,0,0,1-.875.875H7.875A.878.878,0,0,1,7,27.125v-.583a.878.878,0,0,1,.875-.875h12.25a.878.878,0,0,1,.875.875Zm0-4.667a.878.878,0,0,1-.875.875H7.875A.878.878,0,0,1,7,22.458v-.583A.878.878,0,0,1,7.875,21h12.25a.878.878,0,0,1,.875.875Zm0-5.25v.583a.878.878,0,0,1-.875.875H7.875A.878.878,0,0,1,7,17.792v-.583a.878.878,0,0,1,.875-.875h12.25A.878.878,0,0,1,21,17.208Zm7-8.32v.445H18.667V0h.445a1.749,1.749,0,0,1,1.24.51L27.49,7.656A1.744,1.744,0,0,1,28,8.889Z" transform="translate(194 590)" fill="rgba(0,88,255,0.6)"/>
    <g id="Group_1245" data-name="Group 1245" transform="translate(227 609.917)" opacity="0.6">
      <path id="Path_1252" data-name="Path 1252" d="M3.686,0,0,6.383H7.372Z" fill="#0058ff"/>
      <rect id="Rectangle_904" data-name="Rectangle 904" width="1.986" height="11" transform="translate(2.693 6.416)" fill="#0058ff"/>
    </g>
  </g>
</svg>
