<?xml version="1.0" encoding="UTF-8"?><svg id="Layer_2" xmlns="http://www.w3.org/2000/svg" viewBox="0 0 542.12 510.09"><defs><style>.cls-1{fill:#231f20;}</style></defs><g id="Layer_2-2"><g><path class="cls-1" d="M270.72,160.24c4.14,0,7.5-3.36,7.5-7.5v-63.17c0-4.14-3.36-7.5-7.5-7.5s-7.5,3.36-7.5,7.5v63.17c0,4.14,3.36,7.5,7.5,7.5Z"/><path class="cls-1" d="M270.72,353.73c-4.14,0-7.5,3.36-7.5,7.5v63.17c0,4.14,3.36,7.5,7.5,7.5s7.5-3.36,7.5-7.5v-63.17c0-4.14-3.36-7.5-7.5-7.5Z"/><path class="cls-1" d="M445.79,255.62c0-4.14-3.36-7.5-7.5-7.5h-63.17c-4.14,0-7.5,3.36-7.5,7.5s3.36,7.5,7.5,7.5h63.17c4.14,0,7.5-3.36,7.5-7.5Z"/><path class="cls-1" d="M165.19,248.12h-63.17c-4.14,0-7.5,3.36-7.5,7.5s3.36,7.5,7.5,7.5h63.17c4.14,0,7.5-3.36,7.5-7.5s-3.36-7.5-7.5-7.5Z"/><path class="cls-1" d="M270.72,174.81c-44.55,0-80.8,36.25-80.8,80.8s36.25,80.8,80.8,80.8,80.8-36.25,80.8-80.8-36.25-80.8-80.8-80.8Zm0,146.6c-36.28,0-65.8-29.52-65.8-65.8s29.52-65.8,65.8-65.8,65.8,29.52,65.8,65.8-29.52,65.8-65.8,65.8Z"/><path class="cls-1" d="M485.85,401.45c12.09-8.92,19.96-23.25,19.96-39.39,0-14.75-6.57-27.99-16.93-36.97,3.84-11.99,6.71-24.32,8.54-36.81,15.82-2.45,27.97-16.16,27.97-32.66s-12.04-30.08-27.75-32.62c-1.34-9.65-3.32-19.21-5.87-28.59h42.86c4.14,0,7.5-3.36,7.5-7.5,0-36.83-23.49-68.28-56.27-80.16,12.09-8.92,19.96-23.25,19.96-39.39,0-26.98-21.95-48.92-48.92-48.92s-48.92,21.95-48.92,48.92c0,1.33,.07,2.65,.17,3.96-30.58-23.01-66.51-38.09-104.8-43.62-2.57-15.68-16.21-27.68-32.61-27.68s-29.96,11.94-32.59,27.56c-37.91,5.31-73.57,19.96-104.06,42.46,.05-.89,.08-1.78,.08-2.68,0-26.98-21.95-48.92-48.92-48.92s-48.92,21.95-48.92,48.92c0,16.14,7.86,30.48,19.96,39.39C23.49,118.62,0,150.07,0,186.9c0,4.14,3.36,7.5,7.5,7.5H48.74c-2.57,9.43-4.52,19.05-5.86,28.75-15.27,2.91-26.84,16.36-26.84,32.46s11.69,29.67,27.06,32.5c1.88,12.93,4.86,25.69,8.91,38.08-9.64,8.94-15.69,21.7-15.69,35.86,0,16.14,7.86,30.48,19.96,39.39C23.49,413.33,0,444.77,0,481.61c0,4.14,3.36,7.5,7.5,7.5H75.34c4.14,0,7.5-3.36,7.5-7.5s-3.36-7.5-7.5-7.5H15.4c3.76-35.21,33.64-62.74,69.84-62.74s66.08,27.52,69.84,62.74h-46.62c-4.14,0-7.5,3.36-7.5,7.5s3.36,7.5,7.5,7.5h54.52c4.14,0,7.5-3.36,7.5-7.5,0-7.32-.93-14.43-2.68-21.22,22.11,11.08,45.65,18.37,70.28,21.81,2.49,15.78,16.18,27.89,32.65,27.89s30.24-12.18,32.67-28.02c24.73-3.59,48.91-11.32,71.21-22.69-1.92,7.09-2.96,14.54-2.96,22.23,0,4.14,3.36,7.5,7.5,7.5h75.84c4.14,0,7.5-3.36,7.5-7.5s-3.36-7.5-7.5-7.5h-67.94c3.76-35.21,33.64-62.74,69.84-62.74s66.08,27.52,69.84,62.74h-46.62c-4.14,0-7.5,3.36-7.5,7.5s3.36,7.5,7.5,7.5h54.52c4.14,0,7.5-3.36,7.5-7.5,0-36.83-23.49-68.28-56.27-80.16Zm6.48-163.88c9.95,0,18.05,8.1,18.05,18.05s-8.1,18.05-18.05,18.05-18.05-8.1-18.05-18.05,8.1-18.05,18.05-18.05Zm-35.44-204.14c18.7,0,33.92,15.22,33.92,33.92s-15.22,33.92-33.92,33.92-33.92-15.22-33.92-33.92,15.22-33.92,33.92-33.92ZM270.72,15c9.95,0,18.05,8.1,18.05,18.05s-8.1,18.05-18.05,18.05-18.05-8.1-18.05-18.05,8.1-18.05,18.05-18.05ZM51.31,67.35c0-18.7,15.22-33.92,33.92-33.92s33.92,15.22,33.92,33.92c0,8.99-3.52,17.17-9.25,23.24-.53,.52-1.05,1.04-1.57,1.57-6.06,5.65-14.18,9.11-23.1,9.11-18.7,0-33.92-15.22-33.92-33.92Zm-2.23,206.32c-9.96,0-18.05-8.1-18.05-18.05s8.1-18.05,18.05-18.05,18.05,8.1,18.05,18.05-8.1,18.05-18.05,18.05Zm36.15,122.31c-18.7,0-33.92-15.22-33.92-33.92s15.22-33.92,33.92-33.92,33.92,15.22,33.92,33.92-15.22,33.92-33.92,33.92Zm185.49,99.11c-9.95,0-18.05-8.1-18.05-18.05s8.1-18.05,18.05-18.05,18.05,8.1,18.05,18.05-8.1,18.05-18.05,18.05Zm113.94-58.67c-24.96,15.75-53.26,26.29-82.42,30.67-4.23-13.38-16.76-23.1-31.52-23.1s-27.37,9.78-31.56,23.22c-28.7-4.14-55.8-13.91-80.69-29.13-10.02-16.8-25.64-29.87-44.28-36.63,12.09-8.92,19.96-23.25,19.96-39.39,0-26.98-21.95-48.92-48.92-48.92-7.22,0-14.08,1.59-20.25,4.41-3-9.86-5.28-19.94-6.83-30.14,13.83-3.95,23.99-16.7,23.99-31.78s-10.26-27.96-24.2-31.84c1.45-9.94,3.58-19.77,6.4-29.38h9c4.14,0,7.5-3.36,7.5-7.5s-3.36-7.5-7.5-7.5H15.4c3.76-35.21,33.64-62.74,69.84-62.74s66.08,27.52,69.84,62.74h-46.62c-4.14,0-7.5,3.36-7.5,7.5s3.36,7.5,7.5,7.5h54.52c4.14,0,7.5-3.36,7.5-7.5,0-36.6-23.19-67.88-55.64-79.93,1.41-1.48,2.84-2.95,4.29-4.38,.42-.4,.83-.82,1.24-1.23,32.45-31.71,73.87-52.25,118.72-58.78,4.1,13.6,16.73,23.53,31.65,23.53s27.48-9.87,31.61-23.41c47.35,7.1,90.8,29.84,123.8,64.73-31.84,12.36-54.49,43.31-54.49,79.47,0,4.14,3.36,7.5,7.5,7.5h49.84c4.14,0,7.5-3.36,7.5-7.5s-3.36-7.5-7.5-7.5h-41.94c3.76-35.21,33.64-62.74,69.84-62.74s66.08,27.52,69.84,62.74h-64.62c-4.14,0-7.5,3.36-7.5,7.5s3.36,7.5,7.5,7.5h14.06c2.84,9.69,5,19.6,6.45,29.62-13.5,4.16-23.34,16.75-23.34,31.59s9.74,27.31,23.13,31.53c-1.52,10.07-3.76,20.03-6.69,29.76-5.8-2.43-12.16-3.77-18.83-3.77-26.98,0-48.92,21.95-48.92,48.92,0,16.14,7.86,30.48,19.96,39.39-18.02,6.53-33.21,18.97-43.25,34.97Zm72.22-40.44c-18.7,0-33.92-15.22-33.92-33.92s15.22-33.92,33.92-33.92,33.92,15.22,33.92,33.92-15.22,33.92-33.92,33.92Z"/><path class="cls-1" d="M292.77,219.15c-6.59,0-12.79,2.57-17.46,7.23l-10.51,10.51c-9.64-9.43-25.16-9.37-34.72,.19-9.63,9.63-9.63,25.29,0,34.92l17.26,17.26c4.66,4.66,10.86,7.23,17.46,7.23s12.79-2.57,17.46-7.23l27.97-27.97c9.62-9.63,9.63-25.29,0-34.92-4.66-4.66-10.86-7.23-17.46-7.23Zm6.85,31.54l-27.97,27.97c-1.83,1.83-4.26,2.84-6.85,2.84s-5.02-1.01-6.85-2.84l-17.26-17.26c-3.78-3.78-3.78-9.92,0-13.7,1.89-1.89,4.37-2.83,6.85-2.83s4.96,.94,6.85,2.83l5.11,5.11c2.93,2.93,7.68,2.93,10.61,0l15.81-15.81c1.83-1.83,4.26-2.84,6.85-2.84s5.02,1.01,6.85,2.84c3.78,3.78,3.78,9.93,0,13.7Z"/></g></g></svg>