<svg width="31" height="31" viewBox="0 0 31 31" fill="none" xmlns="http://www.w3.org/2000/svg">
<path d="M21.584 10.237C21.584 11.4632 21.2204 12.6619 20.5391 13.6815C19.8578 14.7011 18.8895 15.4958 17.7566 15.9651C16.6237 16.4343 15.3771 16.5571 14.1744 16.3179C12.9718 16.0786 11.867 15.4881 10.9999 14.6211C10.1328 13.754 9.54235 12.6492 9.30313 11.4466C9.0639 10.2439 9.18668 8.99726 9.65594 7.86436C10.1252 6.73146 10.9199 5.76315 11.9395 5.08189C12.959 4.40063 14.1577 4.037 15.384 4.037C17.0283 4.037 18.6053 4.69021 19.7681 5.85294C20.9308 7.01567 21.584 8.59266 21.584 10.237" fill="#666566"/>
<path d="M15.385 0C12.3441 0.00158223 9.37203 0.904654 6.84434 2.59506C4.31664 4.28547 2.34685 6.68733 1.18395 9.49702C0.0210421 12.3067 -0.282761 15.3981 0.310939 18.3804C0.904638 21.3627 2.36919 24.1021 4.51946 26.2522C6.66973 28.4024 9.40918 29.8667 12.3915 30.4602C15.3739 31.0538 18.4653 30.7497 21.2749 29.5867C24.0845 28.4236 26.4862 26.4536 28.1765 23.9258C29.8667 21.398 30.7696 18.4258 30.771 15.385C30.767 11.3057 29.1447 7.39461 26.2601 4.5102C23.3755 1.62578 19.4643 0.00370653 15.385 0V0ZM26.642 23.16C24.411 20.175 20.194 18.16 15.359 18.16C10.544 18.16 6.34099 20.16 4.10299 23.122C2.69106 21.0653 1.86818 18.6618 1.72333 16.1713C1.57847 13.6808 2.11713 11.1981 3.28109 8.99161C4.44505 6.78509 6.19002 4.93872 8.32734 3.65211C10.4647 2.3655 12.913 1.68759 15.4077 1.69169C17.9024 1.69578 20.3485 2.38172 22.4816 3.67534C24.6147 4.96897 26.3536 6.82106 27.5103 9.03138C28.667 11.2417 29.1975 13.7262 29.0445 16.2162C28.8914 18.7062 28.0607 21.107 26.642 23.159" fill="#666566"/>
</svg>
