<svg width="32" height="33" viewBox="0 0 32 33" fill="none" xmlns="http://www.w3.org/2000/svg">
<g id="IMAGE">
<path id="Vector" d="M12 13.8594C13.7239 13.8594 15.3772 13.1746 16.5962 11.9556C17.8152 10.7366 18.5 9.08328 18.5 7.35938C18.5 9.08328 19.1848 10.7366 20.4038 11.9556C21.6228 13.1746 23.2761 13.8594 25 13.8594C23.2761 13.8594 21.6228 14.5442 20.4038 15.7632C19.1848 16.9822 18.5 18.6355 18.5 20.3594C18.5 18.6355 17.8152 16.9822 16.5962 15.7632C15.3772 14.5442 13.7239 13.8594 12 13.8594ZM8 20.8594C8.92826 20.8594 9.8185 20.4906 10.4749 19.8342C11.1313 19.1779 11.5 18.2876 11.5 17.3594C11.5 18.2876 11.8687 19.1779 12.5251 19.8342C13.1815 20.4906 14.0717 20.8594 15 20.8594C14.0717 20.8594 13.1815 21.2281 12.5251 21.8845C11.8687 22.5409 11.5 23.4311 11.5 24.3594C11.5 23.4311 11.1313 22.5409 10.4749 21.8845C9.8185 21.2281 8.92826 20.8594 8 20.8594Z" stroke="#002E25" stroke-width="1.5" stroke-linecap="round" stroke-linejoin="round"/>
</g>
</svg>
